# Blender 4.1.1
# www.blender.org
mtllib robot_model1.mtl
o Cube
v 1.000000 0.046713 -1.000000
v 1.000000 -0.046713 -1.000000
v 1.000000 0.046713 1.000000
v 1.000000 -0.046713 1.000000
v -1.000000 0.046713 -1.000000
v -1.000000 -0.046713 -1.000000
v -1.000000 0.046713 1.000000
v -1.000000 -0.046713 1.000000
v 0.632320 -0.046713 -1.000000
v 0.632320 0.046713 1.000000
v 0.632320 -0.046713 1.000000
v 0.632320 0.046713 -1.000000
v 0.314064 -0.046713 -1.000000
v 0.314064 0.046713 1.000000
v 0.314064 -0.046713 1.000000
v 0.314064 0.046713 -1.000000
v -1.000000 -0.046713 0.822885
v 1.000000 0.046713 0.822885
v -1.000000 0.046713 0.822885
v 1.000000 -0.046713 0.822885
v 0.632320 -0.046713 0.696960
v 0.632320 0.046713 0.696960
v 0.314064 -0.046713 0.696960
v 0.314064 0.046713 0.696960
v -1.000000 0.046713 -0.843523
v 1.000000 -0.046713 -0.843523
v -1.000000 -0.046713 -0.843523
v 1.000000 0.046713 -0.843523
v 0.632320 -0.046713 -0.697993
v 0.632320 0.046713 -0.697993
v 0.314064 -0.046713 -0.697993
v 0.314064 0.046713 -0.697993
vn -0.0000 1.0000 -0.0000
vn -0.0000 -0.0000 1.0000
vn -1.0000 -0.0000 -0.0000
vn -0.0000 -1.0000 -0.0000
vn 1.0000 -0.0000 -0.0000
vn -0.0000 -0.0000 -1.0000
vn -0.6883 -0.0000 -0.7254
vt 0.774372 0.727861
vt 0.875000 0.727861
vt 0.875000 0.750000
vt 0.774372 0.750000
vt 0.375000 0.899372
vt 0.625000 0.899372
vt 0.625000 1.000000
vt 0.375000 1.000000
vt 0.375000 0.230440
vt 0.625000 0.230440
vt 0.625000 0.250000
vt 0.375000 0.250000
vt 0.250000 0.727861
vt 0.375000 0.727861
vt 0.375000 0.750000
vt 0.250000 0.750000
vt 0.625000 0.727861
vt 0.625000 0.750000
vt 0.375000 0.375000
vt 0.625000 0.375000
vt 0.625000 0.500000
vt 0.375000 0.500000
vt 0.225628 0.727861
vt 0.225628 0.750000
vt 0.625000 0.875000
vt 0.375000 0.875000
vt 0.750000 0.727861
vt 0.750000 0.750000
vt 0.125000 0.727861
vt 0.125000 0.750000
vt 0.625000 0.350628
vt 0.375000 0.350628
vt 0.750000 0.519560
vt 0.774372 0.519560
vt 0.125000 0.519560
vt 0.225628 0.519560
vt 0.625000 0.519560
vt 0.250000 0.519560
vt 0.375000 0.519560
vt 0.375000 0.000000
vt 0.625000 0.000000
vt 0.625000 0.022139
vt 0.375000 0.022139
vt 0.875000 0.519560
vt 0.774372 0.500000
vt 0.875000 0.500000
vt 0.250000 0.500000
vt 0.750000 0.500000
vt 0.125000 0.500000
vt 0.225628 0.500000
s 0
usemtl Material.001
f 24/1/1 19/2/1 7/3/1 14/4/1
f 15/5/2 14/6/2 7/7/2 8/8/2
f 27/9/3 25/10/3 5/11/3 6/12/3
f 21/13/4 20/14/4 4/15/4 11/16/4
f 20/14/5 18/17/5 3/18/5 4/15/5
f 9/19/6 12/20/6 1/21/6 2/22/6
f 23/23/5 24/1/5 14/6/5 15/24/5
f 4/15/2 3/18/2 10/25/2 11/26/2
f 18/17/1 22/27/1 10/28/1 3/18/1
f 17/29/4 23/23/4 15/24/4 8/30/4
f 6/12/6 5/11/6 16/31/6 13/32/6
f 21/13/2 22/27/2 24/1/2 23/23/2
f 21/13/3 11/16/3 10/25/3 22/27/3
f 30/33/1 32/34/1 24/1/1 22/27/1
f 27/35/4 31/36/4 23/23/4 17/29/4
f 28/37/1 30/33/1 22/27/1 18/17/1
f 31/36/4 29/38/4 21/13/4 23/23/4
f 26/39/5 28/37/5 18/17/5 20/14/5
f 29/38/4 26/39/4 20/14/4 21/13/4
f 8/40/3 7/41/3 19/42/3 17/43/3
f 32/34/1 25/44/1 19/2/1 24/1/1
f 16/45/1 5/46/1 25/44/1 32/34/1
f 9/47/4 2/22/4 26/39/4 29/38/4
f 2/22/5 1/21/5 28/37/5 26/39/5
f 12/48/7 9/47/7 29/38/7 31/36/7 32/34/7 30/33/7
f 1/21/1 12/48/1 30/33/1 28/37/1
f 6/49/4 13/50/4 31/36/4 27/35/4
f 31/36/5 13/50/5 16/31/5 32/34/5
f 17/43/3 19/42/3 25/10/3 27/9/3
o Cylinder
v -0.341760 0.034324 -0.086686
v -0.341760 0.173331 -0.086686
v -0.316760 0.034324 -0.079987
v -0.316760 0.173331 -0.079987
v -0.298459 0.034324 -0.061686
v -0.298459 0.173331 -0.061686
v -0.291760 0.034324 -0.036686
v -0.291760 0.173331 -0.036686
v -0.298459 0.034324 -0.011686
v -0.298459 0.173331 -0.011686
v -0.316760 0.034324 0.006616
v -0.316760 0.173331 0.006616
v -0.341760 0.034324 0.013314
v -0.341760 0.173331 0.013314
v -0.366760 0.034324 0.006616
v -0.366760 0.173331 0.006616
v -0.385062 0.034324 -0.011686
v -0.385062 0.173331 -0.011686
v -0.391760 0.034324 -0.036686
v -0.391760 0.173331 -0.036686
v -0.385062 0.034324 -0.061686
v -0.385062 0.173331 -0.061686
v -0.366760 0.034324 -0.079987
v -0.366760 0.173331 -0.079987
v -0.320210 0.177130 -0.074012
v -0.341760 0.177130 -0.079786
v -0.304434 0.177130 -0.058236
v -0.298659 0.177130 -0.036686
v -0.304434 0.177130 -0.015135
v -0.320210 0.177130 0.000641
v -0.341760 0.177130 0.006415
v -0.363311 0.177130 0.000641
v -0.379087 0.177130 -0.015135
v -0.384861 0.177130 -0.036686
v -0.379087 0.177130 -0.058236
v -0.363311 0.177130 -0.074012
v -0.330852 0.177130 -0.055578
v -0.341760 0.177130 -0.058501
v -0.322867 0.177130 -0.047593
v -0.319945 0.177130 -0.036686
v -0.322867 0.177130 -0.025778
v -0.330852 0.177130 -0.017793
v -0.341760 0.177130 -0.014870
v -0.352668 0.177130 -0.017793
v -0.360653 0.177130 -0.025778
v -0.363576 0.177130 -0.036686
v -0.360653 0.177130 -0.047593
v -0.352668 0.177130 -0.055578
vn 0.2588 -0.0000 -0.9659
vn 0.7071 -0.0000 -0.7071
vn 0.9659 -0.0000 -0.2588
vn 0.9659 -0.0000 0.2588
vn 0.7071 -0.0000 0.7071
vn 0.2588 -0.0000 0.9659
vn -0.2588 -0.0000 0.9659
vn -0.7071 -0.0000 0.7071
vn -0.9659 -0.0000 0.2588
vn -0.9659 -0.0000 -0.2588
vn -0.3501 0.8688 0.3501
vn -0.7071 -0.0000 -0.7071
vn -0.2588 -0.0000 -0.9659
vn -0.0000 -1.0000 -0.0000
vn -0.0000 1.0000 -0.0000
vn -0.1282 0.8688 0.4783
vn 0.1282 0.8688 0.4783
vn 0.3501 0.8688 0.3501
vn 0.4783 0.8688 0.1282
vn -0.1282 0.8688 -0.4783
vn 0.1282 0.8688 -0.4783
vn 0.4783 0.8688 -0.1282
vn -0.3501 0.8688 -0.3501
vn 0.3501 0.8688 -0.3501
vn -0.4783 0.8688 -0.1282
vn -0.4783 0.8688 0.1282
vt 1.000000 0.500000
vt 1.000000 1.000000
vt 0.916667 1.000000
vt 0.916667 0.500000
vt 0.833333 1.000000
vt 0.833333 0.500000
vt 0.750000 1.000000
vt 0.750000 0.500000
vt 0.666667 1.000000
vt 0.666667 0.500000
vt 0.583333 1.000000
vt 0.583333 0.500000
vt 0.500000 1.000000
vt 0.500000 0.500000
vt 0.416667 1.000000
vt 0.416667 0.500000
vt 0.333333 1.000000
vt 0.333333 0.500000
vt 0.250000 1.000000
vt 0.250000 0.500000
vt 0.166667 1.000000
vt 0.166667 0.500000
vt 0.083333 1.000000
vt 0.083333 0.500000
vt 0.000000 1.000000
vt 0.000000 0.500000
vt 0.750000 0.490000
vt 0.870000 0.457846
vt 0.957846 0.370000
vt 0.990000 0.250000
vt 0.957846 0.130000
vt 0.870000 0.042154
vt 0.750000 0.010000
vt 0.630000 0.042154
vt 0.542154 0.130000
vt 0.510000 0.250000
vt 0.542154 0.370000
vt 0.630000 0.457846
vt 0.370000 0.457846
vt 0.250000 0.490000
vt 0.130000 0.457846
vt 0.042154 0.370000
vt 0.010000 0.250000
vt 0.042154 0.130000
vt 0.130000 0.042154
vt 0.250000 0.010000
vt 0.370000 0.042154
vt 0.457846 0.130000
vt 0.490000 0.250000
vt 0.457846 0.370000
s 0
usemtl Material.002
f 33/51/8 34/52/8 36/53/8 35/54/8
f 35/54/9 36/53/9 38/55/9 37/56/9
f 37/56/10 38/55/10 40/57/10 39/58/10
f 39/58/11 40/57/11 42/59/11 41/60/11
f 41/60/12 42/59/12 44/61/12 43/62/12
f 43/62/13 44/61/13 46/63/13 45/64/13
f 45/64/14 46/63/14 48/65/14 47/66/14
f 47/66/15 48/65/15 50/67/15 49/68/15
f 49/68/16 50/67/16 52/69/16 51/70/16
f 51/70/17 52/69/17 54/71/17 53/72/17
f 50/67/18 48/65/18 64/65/18 65/67/18
f 53/72/19 54/71/19 56/73/19 55/74/19
f 55/74/20 56/73/20 34/75/20 33/76/20
f 33/77/21 35/78/21 37/79/21 39/80/21 41/81/21 43/82/21 45/83/21 47/84/21 49/85/21 51/86/21 53/87/21 55/88/21
f 62/61/22 61/59/22 73/59/22 74/61/22
f 48/65/23 46/63/23 63/63/23 64/65/23
f 46/63/24 44/61/24 62/61/24 63/63/24
f 44/61/25 42/59/25 61/59/25 62/61/25
f 42/59/26 40/57/26 60/57/26 61/59/26
f 34/75/27 56/73/27 68/73/27 58/75/27
f 36/53/28 34/52/28 58/52/28 57/53/28
f 40/57/29 38/55/29 59/55/29 60/57/29
f 56/73/30 54/71/30 67/71/30 68/73/30
f 38/55/31 36/53/31 57/53/31 59/55/31
f 54/71/32 52/69/32 66/69/32 67/71/32
f 52/69/33 50/67/33 65/67/33 66/69/33
f 69/89/22 70/90/22 80/91/22 79/92/22 78/93/22 77/94/22 76/95/22 75/96/22 74/97/22 73/98/22 72/99/22 71/100/22
f 58/75/22 68/73/22 80/73/22 70/75/22
f 59/55/22 57/53/22 69/53/22 71/55/22
f 66/69/22 65/67/22 77/67/22 78/69/22
f 63/63/22 62/61/22 74/61/22 75/63/22
f 60/57/22 59/55/22 71/55/22 72/57/22
f 67/71/22 66/69/22 78/69/22 79/71/22
f 64/65/22 63/63/22 75/63/22 76/65/22
f 61/59/22 60/57/22 72/57/22 73/59/22
f 68/73/22 67/71/22 79/71/22 80/73/22
f 57/53/22 58/52/22 70/52/22 69/53/22
f 65/67/22 64/65/22 76/65/22 77/67/22
o Cylinder.001
v -0.341760 0.034324 -0.300228
v -0.341760 0.173331 -0.300228
v -0.316760 0.034324 -0.293529
v -0.316760 0.173331 -0.293529
v -0.298459 0.034324 -0.275228
v -0.298459 0.173331 -0.275228
v -0.291760 0.034324 -0.250228
v -0.291760 0.173331 -0.250228
v -0.298459 0.034324 -0.225228
v -0.298459 0.173331 -0.225228
v -0.316760 0.034324 -0.206927
v -0.316760 0.173331 -0.206927
v -0.341760 0.034324 -0.200228
v -0.341760 0.173331 -0.200228
v -0.366760 0.034324 -0.206927
v -0.366760 0.173331 -0.206927
v -0.385062 0.034324 -0.225228
v -0.385062 0.173331 -0.225228
v -0.391760 0.034324 -0.250228
v -0.391760 0.173331 -0.250228
v -0.385062 0.034324 -0.275228
v -0.385062 0.173331 -0.275228
v -0.366760 0.034324 -0.293529
v -0.366760 0.173331 -0.293529
v -0.320210 0.177130 -0.287554
v -0.341760 0.177130 -0.293329
v -0.304434 0.177130 -0.271778
v -0.298659 0.177130 -0.250228
v -0.304434 0.177130 -0.228677
v -0.320210 0.177130 -0.212901
v -0.341760 0.177130 -0.207127
v -0.363311 0.177130 -0.212901
v -0.379087 0.177130 -0.228677
v -0.384861 0.177130 -0.250228
v -0.379087 0.177130 -0.271778
v -0.363311 0.177130 -0.287554
v -0.330852 0.177130 -0.269121
v -0.341760 0.177130 -0.272044
v -0.322867 0.177130 -0.261136
v -0.319945 0.177130 -0.250228
v -0.322867 0.177130 -0.239320
v -0.330852 0.177130 -0.231335
v -0.341760 0.177130 -0.228412
v -0.352668 0.177130 -0.231335
v -0.360653 0.177130 -0.239320
v -0.363576 0.177130 -0.250228
v -0.360653 0.177130 -0.261136
v -0.352668 0.177130 -0.269121
vn 0.2588 -0.0000 -0.9659
vn 0.7071 -0.0000 -0.7071
vn 0.9659 -0.0000 -0.2588
vn 0.9659 -0.0000 0.2588
vn 0.7071 -0.0000 0.7071
vn 0.2588 -0.0000 0.9659
vn -0.2588 -0.0000 0.9659
vn -0.7071 -0.0000 0.7071
vn -0.9659 -0.0000 0.2588
vn -0.9659 -0.0000 -0.2588
vn -0.3501 0.8688 0.3501
vn -0.7071 -0.0000 -0.7071
vn -0.2588 -0.0000 -0.9659
vn -0.0000 -1.0000 -0.0000
vn -0.0000 1.0000 -0.0000
vn -0.1282 0.8688 0.4783
vn 0.1282 0.8688 0.4783
vn 0.3501 0.8688 0.3501
vn 0.4783 0.8688 0.1282
vn -0.1282 0.8688 -0.4783
vn 0.1282 0.8688 -0.4783
vn 0.4783 0.8688 -0.1282
vn -0.3501 0.8688 -0.3501
vn 0.3501 0.8688 -0.3501
vn -0.4783 0.8688 -0.1282
vn -0.4783 0.8688 0.1282
vt 1.000000 0.500000
vt 1.000000 1.000000
vt 0.916667 1.000000
vt 0.916667 0.500000
vt 0.833333 1.000000
vt 0.833333 0.500000
vt 0.750000 1.000000
vt 0.750000 0.500000
vt 0.666667 1.000000
vt 0.666667 0.500000
vt 0.583333 1.000000
vt 0.583333 0.500000
vt 0.500000 1.000000
vt 0.500000 0.500000
vt 0.416667 1.000000
vt 0.416667 0.500000
vt 0.333333 1.000000
vt 0.333333 0.500000
vt 0.250000 1.000000
vt 0.250000 0.500000
vt 0.166667 1.000000
vt 0.166667 0.500000
vt 0.083333 1.000000
vt 0.083333 0.500000
vt 0.000000 1.000000
vt 0.000000 0.500000
vt 0.750000 0.490000
vt 0.870000 0.457846
vt 0.957846 0.370000
vt 0.990000 0.250000
vt 0.957846 0.130000
vt 0.870000 0.042154
vt 0.750000 0.010000
vt 0.630000 0.042154
vt 0.542154 0.130000
vt 0.510000 0.250000
vt 0.542154 0.370000
vt 0.630000 0.457846
vt 0.370000 0.457846
vt 0.250000 0.490000
vt 0.130000 0.457846
vt 0.042154 0.370000
vt 0.010000 0.250000
vt 0.042154 0.130000
vt 0.130000 0.042154
vt 0.250000 0.010000
vt 0.370000 0.042154
vt 0.457846 0.130000
vt 0.490000 0.250000
vt 0.457846 0.370000
s 0
usemtl Material.004
f 81/101/34 82/102/34 84/103/34 83/104/34
f 83/104/35 84/103/35 86/105/35 85/106/35
f 85/106/36 86/105/36 88/107/36 87/108/36
f 87/108/37 88/107/37 90/109/37 89/110/37
f 89/110/38 90/109/38 92/111/38 91/112/38
f 91/112/39 92/111/39 94/113/39 93/114/39
f 93/114/40 94/113/40 96/115/40 95/116/40
f 95/116/41 96/115/41 98/117/41 97/118/41
f 97/118/42 98/117/42 100/119/42 99/120/42
f 99/120/43 100/119/43 102/121/43 101/122/43
f 98/117/44 96/115/44 112/115/44 113/117/44
f 101/122/45 102/121/45 104/123/45 103/124/45
f 103/124/46 104/123/46 82/125/46 81/126/46
f 81/127/47 83/128/47 85/129/47 87/130/47 89/131/47 91/132/47 93/133/47 95/134/47 97/135/47 99/136/47 101/137/47 103/138/47
f 110/111/48 109/109/48 121/109/48 122/111/48
f 96/115/49 94/113/49 111/113/49 112/115/49
f 94/113/50 92/111/50 110/111/50 111/113/50
f 92/111/51 90/109/51 109/109/51 110/111/51
f 90/109/52 88/107/52 108/107/52 109/109/52
f 82/125/53 104/123/53 116/123/53 106/125/53
f 84/103/54 82/102/54 106/102/54 105/103/54
f 88/107/55 86/105/55 107/105/55 108/107/55
f 104/123/56 102/121/56 115/121/56 116/123/56
f 86/105/57 84/103/57 105/103/57 107/105/57
f 102/121/58 100/119/58 114/119/58 115/121/58
f 100/119/59 98/117/59 113/117/59 114/119/59
f 117/139/48 118/140/48 128/141/48 127/142/48 126/143/48 125/144/48 124/145/48 123/146/48 122/147/48 121/148/48 120/149/48 119/150/48
f 106/125/48 116/123/48 128/123/48 118/125/48
f 107/105/48 105/103/48 117/103/48 119/105/48
f 114/119/48 113/117/48 125/117/48 126/119/48
f 111/113/48 110/111/48 122/111/48 123/113/48
f 108/107/48 107/105/48 119/105/48 120/107/48
f 115/121/48 114/119/48 126/119/48 127/121/48
f 112/115/48 111/113/48 123/113/48 124/115/48
f 109/109/48 108/107/48 120/107/48 121/109/48
f 116/123/48 115/121/48 127/121/48 128/123/48
f 105/103/48 106/102/48 118/102/48 117/103/48
f 113/117/48 112/115/48 124/115/48 125/117/48
